<?xml version="1.0" encoding="UTF-8" standalone="no"?>
<!-- Created with Inkscape (http://www.inkscape.org/) -->

<svg
   xmlns:dc="http://purl.org/dc/elements/1.1/"
   xmlns:cc="http://creativecommons.org/ns#"
   xmlns:rdf="http://www.w3.org/1999/02/22-rdf-syntax-ns#"
   xmlns:svg="http://www.w3.org/2000/svg"
   xmlns="http://www.w3.org/2000/svg"
   xmlns:sodipodi="http://sodipodi.sourceforge.net/DTD/sodipodi-0.dtd"
   xmlns:inkscape="http://www.inkscape.org/namespaces/inkscape"
   width="961.68744mm"
   height="142.89418mm"
   viewBox="0 0 3407.5539 506.31796"
   id="svg2"
   version="1.1"
   inkscape:version="0.92.1 r15371"
   sodipodi:docname="improvein_logotipo.svg">
  <defs
     id="defs4" />
  <sodipodi:namedview
     id="base"
     pagecolor="#ffffff"
     bordercolor="#666666"
     borderopacity="1.0"
     inkscape:pageopacity="0.0"
     inkscape:pageshadow="2"
     inkscape:zoom="0.98994948"
     inkscape:cx="162.91165"
     inkscape:cy="288.97048"
     inkscape:document-units="px"
     inkscape:current-layer="layer1"
     showgrid="false"
     inkscape:window-width="1920"
     inkscape:window-height="986"
     inkscape:window-x="-11"
     inkscape:window-y="-11"
     inkscape:window-maximized="1"
     fit-margin-top="0"
     fit-margin-left="0"
     fit-margin-right="0"
     fit-margin-bottom="0" />
  <metadata
     id="metadata7">
    <rdf:RDF>
      <cc:Work
         rdf:about="">
        <dc:format>image/svg+xml</dc:format>
        <dc:type
           rdf:resource="http://purl.org/dc/dcmitype/StillImage" />
        <dc:title></dc:title>
      </cc:Work>
    </rdf:RDF>
  </metadata>
  <g
     inkscape:label="Layer 1"
     inkscape:groupmode="layer"
     id="layer1"
     transform="translate(2610.7852,21.486298)">
    <path
       inkscape:connector-curvature="0"
       id="path4155"
       d="m -2569.7418,482.7601 c -9.0247,-0.0635 -22.0287,-4.3593 -28.0965,-8.72269 -6.3445,-4.7903 -11.0196,-16.97119 -12.4426,-30.63691 -0.7409,-7.11578 -0.6942,-9.11393 0.3317,-14.17698 3.0478,-15.04142 11.6351,-32.62331 27.9438,-57.21261 20.9983,-31.66001 48.8144,-64.74323 83.658,-99.49928 65.3657,-65.20133 134.0642,-112.98707 195.4394,-135.94504 l 9.1832,-3.43505 2.978,2.86764 c 8.0168,7.71948 23.8719,31.38293 34.4643,51.43758 7.1756,13.58536 16.557,37.64183 22.3938,57.42338 2.0155,6.8311 3.5288,10.15483 5.4675,12.00917 0.717,0.68579 1.883,2.99135 2.5912,5.1235 1.2955,3.90049 2.5417,5.74579 3.8803,5.74579 1.5616,0 25.8274,-28.89359 41.4428,-49.3463 34.2949,-44.91881 64.4802,-92.97359 90.5437,-144.14492 11.7742,-23.11662 20.6851,-42.165968 27.8924,-59.627204 2.3674,-5.7355649 4.3188,-10.3617309 4.3364,-10.2803692 0.018,0.081362 -0.1808,7.2523952 -0.4409,15.9356352 -0.2602,8.68324 -0.5109,106.370538 -0.5572,217.082908 -0.076,182.12419 -0.1943,201.38649 -1.2394,202.25386 0,0 -1.8671,8.18268 -3.6208,13.87378 -2.7798,9.02052 -7.6604,14.25492 -13.4952,18.86705 -8.1083,7.3112 -15.3731,10.10418 -25.6065,10.53218 l -232.8949,0.18699 c -128.0922,0.10286 -233.4608,-0.0376 -234.1525,-0.31211 z M 408.48962,382.14982 c -3.01932,-0.37737 -7.31505,-1.4087 -9.54606,-2.29175 -7.34277,-2.90618 -6.65957,11.49292 -6.44632,-135.86131 l 0.18687,-129.11564 2.3562,-2.1052 c 4.94985,-4.4226 17.22902,-6.25937 37.62885,-5.62866 18.25382,0.56435 27.17466,2.88022 29.33183,7.61455 0.58052,1.27421 0.80992,38.35176 0.80992,130.92563 v 129.14805 l -1.80952,2.15048 c -3.57452,4.24808 -14.25241,6.08421 -34.53893,5.93929 -6.86582,-0.0488 -14.95359,-0.398 -17.97284,-0.77544 z m 162.28296,0 c -3.01931,-0.37737 -7.31504,-1.4087 -9.54605,-2.29175 -7.34307,-2.90629 -6.65957,11.52358 -6.44632,-136.09117 0.18516,-128.17089 0.20026,-129.36047 1.65549,-130.99772 3.57704,-4.0243 12.49746,-5.84491 28.63817,-5.84491 16.50357,0 25.56963,1.93624 28.27101,6.03786 0.8726,1.32493 1.15252,4.99084 1.34708,17.6437 0.16061,10.44207 0.51091,15.97129 1.01177,15.97129 0.42126,0 4.05287,-3.15483 8.07015,-7.01072 20.92895,-20.08808 39.83314,-31.01971 61.71711,-35.68881 9.55193,-2.03798 27.96842,-2.2159 38.84957,-0.37531 36.97455,6.25434 60.95143,30.59738 68.82619,69.87722 3.19655,15.94432 3.23197,17.06101 3.51036,110.51396 0.21331,71.60536 0.0782,90.31951 -0.66264,91.74883 -2.48538,4.79535 -9.76476,6.60217 -28.83121,7.15608 -21.89037,0.63597 -36.05249,-1.50951 -38.89568,-5.89236 -0.86567,-1.33451 -1.0835,-14.83398 -1.35208,-83.83364 -0.27357,-70.23437 -0.48782,-83.20925 -1.4678,-88.86087 -3.6587,-21.1019 -13.96139,-34.87918 -29.66204,-39.66572 -1.93723,-0.59056 -6.1963,-1.28504 -9.46463,-1.54323 -10.65587,-0.84181 -21.00427,2.57685 -32.51787,10.74246 -6.15806,4.36751 -18.42401,16.25661 -24.58124,23.82608 l -4.14804,5.09953 v 86.0824 86.08247 l -1.80952,2.15053 c -3.57452,4.24803 -14.25241,6.08422 -34.53893,5.93924 -6.86582,-0.0488 -14.95359,-0.398 -17.97291,-0.77544 z m -318.70924,-85.8006 c -21.72048,-2.89072 -39.98769,-17.77476 -47.04479,-38.33203 -11.01315,-32.08092 7.23539,-66.07181 40.1583,-74.80179 8.01475,-2.12515 20.44448,-2.12515 28.45929,0 19.05481,5.05266 33.89021,18.70957 40.15824,36.96827 9.53507,27.77538 -2.88526,57.91349 -29.14356,70.71772 -9.59393,4.67821 -22.34858,6.81048 -32.58748,5.44783 z M 409.86231,66.901034 C 393.33177,63.606992 387.14446,54.081578 387.2079,32.024435 c 0.0423,-14.794943 3.7024,-25.8014878 10.1318,-30.4705142 7.44933,-5.4096829 22.89779,-7.9486286 39.21327,-6.4446517 18.55271,1.7102069 25.59817,6.0652532 29.41014,18.1795229 1.41363,4.492286 1.62083,6.793914 1.62083,18.001331 0,11.310615 -0.1978,13.466402 -1.65115,17.990646 -4.54768,14.156767 -14.34458,18.80135 -39.35137,18.655956 -6.56252,-0.03818 -14.03658,-0.501147 -16.71911,-1.035691 z"
       style="fill:#0063d5"
       sodipodi:nodetypes="ccccsscccccccscscccsccccscccsccscsccccccscsccscsccscsccccccccccccccccccccccccscsccc" />
    <path
       inkscape:connector-curvature="0"
       id="path4149"
       d="m -1278.8111,484.29469 c -6.1875,-0.9428 -12.0204,-3.20836 -14.1808,-5.50799 l -1.7731,-1.88741 -0.188,-179.56891 c -0.1254,-119.78674 0.06,-180.49057 0.5575,-182.33737 1.4873,-5.52358 7.3729,-7.37006 25.1089,-7.87738 19.8103,-0.56665 29.9392,1.40318 32.4801,6.31663 0.9411,1.8199 1.1536,5.07006 1.1536,17.6445 0,9.59605 0.2802,15.58687 0.7424,15.87253 0.4083,0.25237 4.6214,-3.12434 9.3625,-7.50381 15.3747,-14.20215 26.0265,-21.86073 38.5449,-27.71332 15.4189,-7.2086 25.9571,-9.46657 44.2407,-9.47923 14.9022,-0.0103 22.8983,1.11293 33.7496,4.7409 33.2578,11.11933 56.0894,41.34649 64.6642,85.61019 5.2958,27.33721 5.952,59.58496 1.7883,87.88882 -6.9923,47.53249 -28.378,81.8943 -60.622,97.40491 -24.3091,11.69371 -56.6528,13.39837 -78.9588,4.16155 -11.4717,-4.75035 -22.6153,-12.19581 -34.7081,-23.18964 -3.1876,-2.898 -6.1616,-5.14717 -6.6088,-4.99813 -0.582,0.19391 -0.9174,17.68153 -1.1802,61.52489 -0.2767,46.15792 -0.5871,61.63757 -1.2597,62.81047 -1.0715,1.86868 -4.9962,3.83622 -10.4893,5.25856 -4.94,1.27911 -35.5453,1.87731 -42.424,0.82924 z m 121.1312,-156.66577 c 25.7779,-4.59697 42.8621,-34.11432 44.4385,-76.7795 0.4699,-12.71699 -0.5684,-27.22805 -2.7615,-38.59661 -5.2123,-27.01828 -18.0431,-44.36602 -36.3386,-49.13142 -5.4904,-1.43008 -16.9175,-1.43378 -22.9676,-0.008 -13.6326,3.21388 -30.0089,15.7833 -44.7696,34.3624 l -4.5595,5.73903 0,42.06468 0,42.06469 2.0865,2.86381 c 4.1509,5.69732 15.4467,17.68147 21.483,22.79205 8.1307,6.88397 14.3771,10.83692 20.1711,12.76499 8.9068,2.96403 14.5195,3.41449 23.2177,1.86333 z m 526.73298,60.09621 c -24.46559,-1.90468 -41.69034,-6.23407 -58.25518,-14.6423 -20.63901,-10.47628 -35.51691,-25.52322 -45.99936,-46.52207 -17.96436,-35.98705 -20.77979,-96.40789 -6.50476,-139.59649 6.40724,-19.38484 15.73351,-34.68862 29.56458,-48.51382 9.34118,-9.33712 16.27581,-14.53447 27.22278,-20.40268 21.29447,-11.41511 50.632,-17.23089 80.60045,-15.97796 40.74991,1.70366 69.31869,12.3068 90.24152,33.49263 17.71175,17.93433 28.41414,42.07842 33.03819,74.53266 1.7187,12.06328 1.94992,49.66623 0.37027,60.21359 -5.43655,36.29875 -16.60696,60.94737 -36.79717,81.19629 -19.39685,19.4534 -43.30165,30.57911 -74.92993,34.87384 -7.7199,1.04824 -31.64687,1.88383 -38.55139,1.34631 z m 24.90647,-56.17434 c 13.81043,-1.69374 24.381,-6.76548 33.47134,-16.0597 12.39401,-12.67194 18.68354,-30.38131 20.67566,-58.21644 0.67836,-9.47797 0.68284,-15.12148 0.0191,-24.59945 -2.11724,-30.24884 -7.97403,-46.9414 -21.06226,-60.0299 -12.04823,-12.04847 -27.79049,-16.96851 -48.14958,-15.04858 -21.49236,2.02682 -36.33971,11.78001 -45.79156,30.08048 -7.89422,15.28468 -11.43265,33.10073 -11.43265,57.56361 0,23.69619 4.03285,44.29117 11.45123,58.47908 11.0608,21.15436 33.08392,31.23229 60.81837,27.8309 z M 1.6629268,387.67896 c -25.7956198,-1.79736 -43.5696138,-5.95844 -60.5807458,-14.1825 -30.176467,-14.5889 -48.924101,-39.88596 -57.153331,-77.11969 -3.50108,-15.84058 -4.43237,-25.83827 -4.44641,-47.73028 -0.0141,-21.86071 0.83794,-30.91695 4.42092,-46.99598 2.86505,-12.85733 6.37993,-22.76191 12.37785,-34.87982 15.541454,-31.399 40.917928,-51.80861 75.346356,-60.59898 25.5114697,-6.513661 62.201049,-5.21726 85.550528,3.02287 34.169362,12.05855 56.504606,37.21259 65.635396,73.91914 3.36286,13.51909 4.47402,22.68613 4.93393,40.7065 0.56384,22.09145 -0.52482,27.67928 -6.51088,33.41725 -5.57607,5.34497 0.82555,4.97082 -88.900223,5.19605 -75.433765,0.18933 -80.615188,0.28303 -81.205751,1.46862 -0.912956,1.83279 0.254601,15.55338 2.005201,23.56349 4.062508,18.58884 14.371838,32.51757 29.618859,40.01754 12.5684265,6.18232 25.3373498,8.28292 46.077847,7.58016 20.81528,-0.7053 35.767225,-3.59437 59.479278,-11.49275 8.279398,-2.75784 15.995369,-5.22789 17.146719,-5.48907 3.19214,-0.72403 6.93008,0.83118 8.28221,3.44586 1.87256,3.62127 2.74798,17.65809 1.81646,29.12987 -1.2387,15.25589 -2.82193,17.52203 -15.891984,22.74669 -25.317377,10.12053 -68.129357,16.35654 -98.0022292,14.27503 z M 59.530713,210.82942 c 0.398408,-11.7416 -2.726002,-25.63684 -8.048472,-35.79413 -3.14873,-6.00897 -12.030793,-14.90266 -18.013321,-18.03694 -7.601599,-3.98252 -14.575037,-5.46788 -25.9314967,-5.5235 -7.32467478,-0.0359 -11.2553592,0.29926 -15.0533975,1.28344 -17.2112178,4.45994 -30.7111048,17.87506 -37.0116198,36.77931 -3.419133,10.2591 -5.686924,26.07877 -3.982732,27.78296 0.271813,0.27187 24.641809,0.40957 54.1555152,0.306 l 53.6612358,-0.18834 0.224288,-6.6088 z M -1942.4283,382.23389 c -7.6368,-1.03338 -12.5983,-2.67525 -15.2538,-5.04796 l -2.3697,-2.11722 -0.192,-176.84591 c -0.1395,-128.549562 0.031,-177.387601 0.625,-178.829449 1.1226,-2.72549 3.4432,-4.076072 10.0638,-5.856973 4.6375,-1.247455 8.5829,-1.587083 21.8727,-1.882764 22.4889,-0.500372 33.6334,1.129818 38.7055,5.661769 l 2.3562,2.10522 0.1857,176.478717 c 0.1757,166.94244 0.1162,176.61627 -1.1014,179.02388 -2.9139,5.76147 -9.8636,7.40039 -32.8626,7.74969 -9.2891,0.14111 -19.2023,-0.0564 -22.0294,-0.439 z m 171.0947,0.35141 c -6.419,-0.88258 -11.272,-2.05137 -13.7351,-3.30799 -5.4093,-2.7596 -4.9903,8.48007 -4.9857,-133.71517 0,-84.1605 0.2588,-128.90748 0.748,-130.66853 1.5105,-5.43832 7.4083,-7.24684 25.3391,-7.7701 21.4085,-0.62475 31.1937,1.49455 33.1631,7.18256 0.5606,1.61916 0.8913,7.89007 0.9178,17.40123 0.029,10.33825 0.2887,14.86982 0.8527,14.86982 0.4461,0 4.8161,-3.83696 9.7111,-8.52659 19.78,-18.95039 37.7895,-29.57306 58.0677,-34.25052 7.9945,-1.84407 27.2479,-2.16531 36.7838,-0.61372 26.2978,4.27894 45.384,17.30433 57.6628,39.35211 1.3496,2.42323 2.806,4.64406 3.2366,4.93517 0.4473,0.30242 3.6156,-2.25257 7.3916,-5.96062 22.032,-21.63565 41.3517,-33.18382 63.518,-37.96732 7.5501,-1.62932 26.5611,-1.81815 35.6141,-0.35375 17.9799,2.90842 32.5958,10.14854 44.4817,22.03438 11.8069,11.80697 19.4081,27.13991 23.3256,47.05177 3.4169,17.36819 3.421,17.50207 3.421,112.98079 l 0,90.58426 -2.5038,2.0905 c -3.9768,3.32015 -10.6402,4.50233 -27.7078,4.91554 -22.3602,0.5414 -34.659,-1.3785 -38.0194,-5.935 -1.5222,-2.06394 -1.5304,-2.43351 -1.9458,-87.38314 -0.4532,-92.68005 -0.2323,-87.84234 -4.5539,-99.74812 -5.5486,-15.28633 -16.2731,-24.53772 -30.6431,-26.43377 -13.943,-1.83972 -24.9538,2.65621 -40.5759,16.56796 -4.966,4.42232 -17.4067,18.00768 -19.8164,21.63971 -1.1991,1.80723 -1.2805,7.38066 -1.2851,87.92752 l -0.01,85.99793 -1.8973,1.89735 c -4.2942,4.2942 -15.6229,5.96948 -36.983,5.46915 -18.3192,-0.42913 -24.7671,-1.64145 -28.4805,-5.35483 l -2.3963,-2.39886 -0.01,-79.56271 c -0.01,-49.36868 -0.2909,-82.07077 -0.7569,-86.17152 -2.4442,-21.51434 -10.4633,-36.48215 -22.7478,-42.45969 -4.5968,-2.23671 -12.6806,-4.13746 -17.6768,-4.15638 -4.3582,-0.0164 -13.5021,2.33253 -18.0378,4.6338 -8.5005,4.31294 -19.6424,14.14074 -30.8501,27.21185 l -6.8538,7.99325 0,86.2557 0,86.2557 -2.3989,2.39886 c -3.9256,3.92563 -10.0755,4.98327 -30.278,5.20715 -9.289,0.10298 -17.8805,0.0511 -19.0921,-0.11573 z m 827.56974,0 c -6.41906,-0.88258 -11.27206,-2.05137 -13.73516,-3.30799 -5.40932,-2.7596 -4.99024,8.48007 -4.98569,-133.71517 0,-84.1605 0.25884,-128.90748 0.74797,-130.66853 1.51055,-5.43832 7.40833,-7.24684 25.33913,-7.7701 19.53718,-0.57014 30.23214,1.36062 32.84975,5.93036 0.61212,1.06848 1.02443,7.03393 1.27263,18.41003 0.23865,10.93881 0.64084,16.92012 1.14913,17.08866 0.43016,0.1426 1.89621,-1.31746 3.25792,-3.24459 8.54233,-12.08877 21.13798,-25.51955 30.10562,-32.1016 15.42606,-11.32239 33.4109,-14.087664 54.54132,-8.38606 7.00086,1.88902 10.23249,4.38123 11.53193,8.89331 1.28336,4.45626 1.86376,36.896 0.81861,45.75742 -1.70448,14.45308 -4.30637,16.39008 -16.67292,12.41223 -9.41131,-3.02725 -14.27429,-3.9899 -20.11215,-3.98127 -16.15369,0.0235 -31.54142,11.78747 -48.77447,37.28737 l -5.56462,8.23405 0,80.83583 0,80.83577 -2.39885,2.39886 c -3.92563,3.92563 -10.07557,4.98327 -30.27804,5.20715 -9.28905,0.10298 -17.8805,0.0511 -19.09211,-0.11573 z m 616.09722,-0.39177 c -11.57945,-1.11175 -18.05926,-3.69001 -20.92419,-8.32563 -1.80512,-2.92074 -79.35946,-236.05317 -81.50964,-245.02206 -1.93788,-8.08393 -1.94699,-13.7876 -0.0259,-16.22997 3.60606,-4.58441 13.45712,-6.01315 37.78911,-5.4807 23.60919,0.51662 28.88425,1.78905 31.89576,7.69368 1.26895,2.48818 58.28023,185.3301 60.34982,193.54905 1.17924,4.6832 2.83585,4.35165 4.14868,-0.8303 2.51358,-9.92103 58.36677,-191.56388 59.52122,-193.57197 3.17053,-5.51459 13.31302,-7.32421 38.35183,-6.84277 13.53337,0.26022 18.10702,0.60214 21.19941,1.5848 7.94926,2.52601 9.21774,5.95491 6.77776,18.32124 -1.1269,5.71197 -13.27477,43.23123 -40.88068,126.26183 -21.6024,64.97422 -39.76247,119.0734 -40.35567,120.2204 -2.55235,4.93581 -8.91173,7.55096 -21.28771,8.75412 -8.83289,0.85867 -45.82671,0.8038 -55.04979,-0.0817 z m -2276.74396,-6.83609 c 0,-2.91393 18.4679,-40.31191 28.849,-58.41993 49.0947,-85.63677 127.64,-171.29047 201.725,-219.981242 12.715,-8.3567 30.5531,-18.670172 32.2917,-18.670172 3.6037,0 19.119,13.175286 24.6231,20.909366 3.4692,4.874718 7.7046,12.826528 7.7046,14.464918 0,0.66898 -1.9779,1.62901 -5.4772,2.65852 -20.6473,6.07456 -55.3574,25.49086 -89.9833,50.33542 -74.3347,53.33608 -142.6733,123.44361 -190.1541,195.07622 -9.7404,14.69506 -9.5788,14.46519 -9.5788,13.6269 z M -2291.549,95.726008 c -9.1483,-17.621346 -33.8589,-38.788432 -68.3357,-58.536416 -11.3769,-6.516555 -41.2609,-21.275482 -53.7692,-26.555162 -5.1388,-2.16907 -9.2506,-4.2478663 -9.1372,-4.6195575 0.5609,-1.8391345 17.8676,-6.99861672 34.6354,-10.3254851 40.5878,-8.0529534 98.9755,-12.9002944 190.554,-15.8197604 33.2597,-1.0603 135.8531,-1.828567 135.8224,-1.017105 -0.022,0.581816 -225.9172,121.462938 -226.9824,121.462938 -0.2226,0 -1.4769,-2.065258 -2.7873,-4.589452 z"
       style="fill:#000000" />
  </g>
</svg>
